<svg width="46" height="46" viewBox="0 0 46 46" fill="none" xmlns="http://www.w3.org/2000/svg">
<circle cx="23" cy="23" r="23" fill="#9B28B0" fill-opacity="0.15"/>
<path d="M23.6997 34.025C23.4957 34.1715 23.2509 34.2503 22.9997 34.2503C22.7486 34.2503 22.5037 34.1715 22.2997 34.025C16.2635 29.7225 9.85722 20.8725 16.3335 14.4775C18.1114 12.7286 20.5058 11.7489 22.9997 11.75C25.4997 11.75 27.8985 12.7313 29.666 14.4763C36.1422 20.8713 29.736 29.72 23.6997 34.025Z" stroke="#9B28B0" stroke-width="1.5" stroke-linecap="round" stroke-linejoin="round"/>
<path d="M23 23C23.663 23 24.2989 22.7366 24.7678 22.2678C25.2366 21.7989 25.5 21.163 25.5 20.5C25.5 19.837 25.2366 19.2011 24.7678 18.7322C24.2989 18.2634 23.663 18 23 18C22.337 18 21.7011 18.2634 21.2322 18.7322C20.7634 19.2011 20.5 19.837 20.5 20.5C20.5 21.163 20.7634 21.7989 21.2322 22.2678C21.7011 22.7366 22.337 23 23 23Z" stroke="#9B28B0" stroke-width="1.5" stroke-linecap="round" stroke-linejoin="round"/>
</svg>
