<svg width="46" height="46" viewBox="0 0 46 46" fill="none" xmlns="http://www.w3.org/2000/svg">
<circle cx="23" cy="23" r="23" fill="#9B28B0" fill-opacity="0.15"/>
<path fill-rule="evenodd" clip-rule="evenodd" d="M15.1663 10.5538C16.6875 9.04125 19.1925 9.31 20.4663 11.0125L22.0438 13.1175C23.0813 14.5025 22.9888 16.4375 21.7575 17.6613L21.46 17.9588C21.4263 18.0836 21.4229 18.2148 21.45 18.3413C21.5288 18.8513 21.955 19.9313 23.74 21.7063C25.525 23.4813 26.6125 23.9063 27.13 23.9863C27.2604 24.0125 27.3951 24.0086 27.5238 23.975L28.0338 23.4675C29.1288 22.38 30.8088 22.1763 32.1638 22.9125L34.5513 24.2125C36.5975 25.3225 37.1138 28.1025 35.4388 29.7688L33.6625 31.5338C33.1025 32.09 32.35 32.5538 31.4325 32.64C29.17 32.8513 23.8988 32.5813 18.3575 27.0725C13.1863 21.93 12.1938 17.445 12.0675 15.235C12.005 14.1175 12.5325 13.1725 13.205 12.505L15.1663 10.5538ZM18.9663 12.1363C18.3325 11.29 17.1525 11.2225 16.4875 11.8838L14.525 13.8338C14.1125 14.2438 13.915 14.6963 13.94 15.1288C14.04 16.885 14.84 20.9313 19.68 25.7438C24.7575 30.7913 29.4463 30.9425 31.2588 30.7725C31.6288 30.7388 31.9963 30.5463 32.34 30.205L34.115 28.4388C34.8375 27.7213 34.6788 26.4138 33.6563 25.8588L31.2688 24.56C30.6088 24.2025 29.8363 24.32 29.3563 24.7975L28.7875 25.3638L28.125 24.6988C28.7875 25.3638 28.7863 25.365 28.785 25.365L28.7838 25.3675L28.78 25.3713L28.7713 25.3788L28.7525 25.3963C28.6998 25.4452 28.6429 25.4896 28.5825 25.5288C28.4825 25.595 28.35 25.6688 28.1838 25.73C27.8463 25.8563 27.3988 25.9238 26.8463 25.8388C25.7625 25.6725 24.3263 24.9338 22.4175 23.0363C20.51 21.1388 19.765 19.7113 19.5975 18.6288C19.5113 18.0763 19.58 17.6288 19.7075 17.2913C19.7777 17.1013 19.8782 16.924 20.005 16.7663L20.045 16.7225L20.0625 16.7038L20.07 16.6963L20.0738 16.6925L20.0763 16.69L20.4363 16.3325C20.9713 15.7988 21.0463 14.915 20.5425 14.2413L18.9663 12.1363Z" fill="#9B28B0"/>
</svg>
