<svg width="46" height="46" viewBox="0 0 46 46" fill="none" xmlns="http://www.w3.org/2000/svg">
<circle cx="23" cy="23" r="23" fill="#9B28B0" fill-opacity="0.15"/>
<path d="M11.75 20.5H10.8125C10.8125 21.0175 11.2325 21.4375 11.75 21.4375V20.5ZM11.75 25.5V24.5625C11.5014 24.5625 11.2629 24.6613 11.0871 24.8371C10.9113 25.0129 10.8125 25.2514 10.8125 25.5H11.75ZM34.25 20.5V21.4375C34.4986 21.4375 34.7371 21.3387 34.9129 21.1629C35.0887 20.9871 35.1875 20.7486 35.1875 20.5H34.25ZM34.25 25.5H35.1875C35.1875 25.2514 35.0887 25.0129 34.9129 24.8371C34.7371 24.6613 34.4986 24.5625 34.25 24.5625V25.5ZM14.25 15.1875H20.5V13.3125H14.25V15.1875ZM20.5 15.1875H31.75V13.3125H20.5V15.1875ZM31.75 30.8125H20.5V32.6875H31.75V30.8125ZM20.5 30.8125H14.25V32.6875H20.5V30.8125ZM19.5625 14.25V31.75H21.4375V14.25H19.5625ZM12.855 21.895C13.0001 22.0401 13.1153 22.2124 13.1938 22.402C13.2724 22.5916 13.3128 22.7948 13.3128 23C13.3128 23.2052 13.2724 23.4084 13.1938 23.598C13.1153 23.7876 13.0001 23.9599 12.855 24.105L14.18 25.43C14.8246 24.7853 15.1868 23.911 15.1868 22.9994C15.1868 22.0877 14.8246 21.2134 14.18 20.5688L12.855 21.895ZM33.145 24.105C32.9999 23.9599 32.8847 23.7876 32.8062 23.598C32.7276 23.4084 32.6872 23.2052 32.6872 23C32.6872 22.7948 32.7276 22.5916 32.8062 22.402C32.8847 22.2124 32.9999 22.0401 33.145 21.895L31.82 20.57C31.1754 21.2147 30.8132 22.089 30.8132 23.0006C30.8132 23.9123 31.1754 24.7866 31.82 25.4312L33.145 24.105ZM11.75 21.4375C12.1513 21.4375 12.55 21.59 12.855 21.895L14.18 20.5688C13.8613 20.249 13.4826 19.9966 13.0656 19.8237C12.6486 19.6507 12.2015 19.562 11.75 19.5625V21.4375ZM12.6875 20.5V16.75H10.8125V20.5H12.6875ZM12.6875 29.25V25.5H10.8125V29.25H12.6875ZM12.855 24.105C12.7103 24.2506 12.5381 24.3661 12.3484 24.4446C12.1587 24.5232 11.9553 24.5632 11.75 24.5625V26.4375C12.6287 26.4375 13.51 26.1013 14.1813 25.43L12.855 24.105ZM33.145 21.895C33.45 21.59 33.8487 21.4375 34.25 21.4375V19.5625C33.3713 19.5625 32.4912 19.8987 31.82 20.57L33.145 21.895ZM33.3125 16.75V20.5H35.1875V16.75H33.3125ZM33.3125 25.5V29.25H35.1875V25.5H33.3125ZM34.25 24.5625C33.8487 24.5625 33.45 24.41 33.145 24.105L31.82 25.4312C32.1387 25.751 32.5174 26.0034 32.9344 26.1763C33.3514 26.3493 33.7985 26.438 34.25 26.4375V24.5625ZM14.25 30.8125C13.3875 30.8125 12.6875 30.1125 12.6875 29.25H10.8125C10.8125 30.1617 11.1747 31.036 11.8193 31.6807C12.464 32.3253 13.3383 32.6875 14.25 32.6875V30.8125ZM31.75 32.6875C32.6617 32.6875 33.536 32.3253 34.1807 31.6807C34.8253 31.036 35.1875 30.1617 35.1875 29.25H33.3125C33.3125 30.1125 32.6125 30.8125 31.75 30.8125V32.6875ZM31.75 15.1875C32.6125 15.1875 33.3125 15.8875 33.3125 16.75H35.1875C35.1875 15.8383 34.8253 14.964 34.1807 14.3193C33.536 13.6747 32.6617 13.3125 31.75 13.3125V15.1875ZM14.25 13.3125C13.3383 13.3125 12.464 13.6747 11.8193 14.3193C11.1747 14.964 10.8125 15.8383 10.8125 16.75H12.6875C12.6875 15.8875 13.3875 15.1875 14.25 15.1875V13.3125Z" fill="#9B28B0"/>
</svg>
