<svg width="46" height="46" viewBox="0 0 46 46" fill="none" xmlns="http://www.w3.org/2000/svg">
<circle cx="23" cy="23" r="23" fill="#9B28B0" fill-opacity="0.15"/>
<path d="M17.963 20.3575H28.038M17.963 25.6425H25.148M23.0005 34.5625C25.5123 34.562 27.9555 33.7436 29.9608 32.231C31.9661 30.7185 33.4243 28.5942 34.1149 26.1792C34.8055 23.7643 34.691 21.1902 33.7886 18.8461C32.8863 16.5021 31.2452 14.5156 29.1135 13.1871C26.9819 11.8587 24.4756 11.2605 21.9737 11.483C19.4719 11.7055 17.1105 12.7366 15.2468 14.4204C13.383 16.1043 12.1183 18.3492 11.6438 20.8157C11.1693 23.2822 11.5108 25.8361 12.6168 28.0913C12.7518 28.3663 12.7968 28.6763 12.728 28.9738L11.708 33.3938C11.6793 33.5178 11.6826 33.6471 11.7176 33.7695C11.7527 33.892 11.8183 34.0034 11.9083 34.0935C11.9984 34.1835 12.1099 34.2491 12.2323 34.2842C12.3547 34.3192 12.484 34.3225 12.608 34.2938L17.0268 33.2725C17.3251 33.2072 17.6369 33.2469 17.9093 33.385C19.4935 34.163 21.2356 34.5659 23.0005 34.5625Z" stroke="#9B28B0" stroke-width="1.5" stroke-linecap="round" stroke-linejoin="round"/>
</svg>
